<?xml version="1.0" encoding="UTF-8"?>
<svg id="Laag_2" data-name="Laag 2" xmlns="http://www.w3.org/2000/svg" viewBox="0 0 640.01 281.91">
  <defs>
    <style>
      .cls-1, .cls-2, .cls-3 {
        stroke-width: 0px;
      }

      .cls-2 {
        fill: #FFF;
      }

      .cls-4 {
        fill: none;
        stroke: #FFF;
        stroke-miterlimit: 10;
      }

      .cls-3 {
        fill: #fff;
      }
    </style>
  </defs>
  <g id="Laag_1-2" data-name="Laag 1">
    <g>
      <path class="cls-2" d="m132.37,0c8.75,0,21.66,2.01,38.7,6.04,10.17,2.37,16.09,3.43,17.75,3.2,3.07-.94,4.73-2.84,4.97-5.68h5.68l7.46,79.53-5.68,2.13c-3.55-38.58-16.1-62.96-37.64-73.14-9.23-4.02-19.88-6.15-31.95-6.39-16.1,0-28.29,5.92-36.57,17.75-4.97,7.1-7.46,15.15-7.46,24.14,0,16.33,10.3,30.77,30.89,43.32,3.78,2.37,18.58,9.82,44.38,22.37,27.93,13.97,47.1,28.17,57.52,42.61,8.99,13.02,13.61,27.93,13.85,44.74,0,25.56-11.13,45.92-33.37,61.07-20.12,13.26-46.28,20-78.47,20.24-41.9,0-74.56-10.88-97.99-32.66C5.49,231.49-2.43,211.49.64,189.24c.23-2.84.71-5.44,1.42-7.81,4.73-17.99,15.5-29.11,32.31-33.37,4.26-.94,8.4-1.54,12.43-1.77,17.04,0,31.01,6.04,41.9,18.11,11.59,12.78,15.03,28.17,10.3,46.16-11.84-5.68-21.9-2.96-30.18,8.17-4.5,6.63-6.75,13.38-6.75,20.24.23,11.36,6.04,20.71,17.4,28.05,9.7,5.92,22.01,9,36.93,9.23,22.01,0,39.41-8.17,52.19-24.5,7.1-8.99,10.65-17.87,10.65-26.63,0-16.09-10.06-30.41-30.18-42.96-3.08-2.13-17.52-9.82-43.32-23.08-27.46-14.43-46.28-29.11-56.45-44.03-9.23-13.25-13.85-28.52-13.85-45.8,0-29.35,14.2-49.58,42.61-60.71C92.96,2.84,111.06,0,132.37,0Z"/>
      <path class="cls-2" d="m299.8,153.51c20.68.17,36.15,6.81,46.41,19.92,6.05,8.07,8.07,16.39,6.05,24.97-2.86,9.92-10.34,15.72-22.45,17.4l-47.67,5.3c.34,1.35.76,2.77,1.26,4.29,4.87,14.97,13.78,24.97,26.73,30.01,12.61,5.04,24.55,3.78,35.81-3.78,5.21-3.53,9.58-8.15,13.11-13.87l3.03,3.03c-7.57,19-20.85,31.53-39.85,37.58-17.49,5.71-34.8,4.54-51.95-3.53-16.98-8.24-28.08-21.02-33.29-38.34-1.18-4.04-1.93-8.15-2.27-12.36-2.35-25.56,4.29-44.55,19.92-57,11.26-9.08,26.31-13.62,45.15-13.62Zm-.25,4.04c-10.26,0-16.65,8.24-19.17,24.72-1.35,9.92-1.1,21.19.76,33.8.17.34.25.67.25,1.01l8.83-1.01c17.82-2.02,27.24-9.33,28.25-21.94v-4.54c-2.19-21.19-8.49-31.86-18.92-32.03Z"/>
      <path class="cls-2" d="m478.88,182.31c.43-1.77.6-4.67,1.82-6.57-10.13-11.53-22.85-18.81-38.16-21.83-16.22-2.89-31.41-.24-45.58,7.93-16.59,10.01-26.48,24.51-29.71,43.47-2.48,14.3-.29,27.99,6.57,41.09,8.97,16.55,22.55,27.46,40.75,32.74.89.39,1.89.72,3.01.99s2.25.46,3.4.56c13.72,2.63,27,1,39.83-4.9.25.58.48,1.25.7,1.99.16.35.33.69.51,1.04,3.95-11.05,8.15-22.49,13.35-33.68,10.39-18.71,4.01-40.74,3.51-62.82Zm-34.35,93.69c-.97-.06-1.92-.21-2.85-.43-2.97-.72-5.8-2.44-8.48-5.17-8.89-9.6-14.09-27.49-15.61-53.67-.53-10-.36-19.23.51-27.68,2.54-21.04,9.01-31.51,19.41-31.42.78.02,1.64.14,2.57.36,2.97.72,5.8,2.44,8.48,5.17,8.88,9.6,14.09,27.49,15.61,53.67.53,10,.36,19.23-.51,27.68-2.54,21.04-8.92,31.53-19.13,31.48Z"/>
      <path class="cls-2" d="m549.97,161.31c26.89-.14,44.64,5.22,53.24,16.09,4.46,5.83,7.67,14.67,9.63,26.53l.49,3.56,4.23,36.05c1.14,6.8,2.68,12.29,4.6,16.47,1.92,4.18,3.87,6.86,5.86,8.04,1.98,1.18,3.93,1.88,5.83,2.1,1.9.23,3.4.02,4.51-.62l1.66-.96.02,2.85c-1.09,3.01-6.22,5.73-15.38,8.15-15.01,3.88-27.2,2.91-36.56-2.89-4.13-2.67-7.23-6.05-9.31-10.15-4.09,5.09-10.55,9.15-19.39,12.2-6,2.09-12.4,3.15-19.2,3.19-18.67.1-31.27-4.97-37.81-15.22-2.87-4.41-4.32-9.55-4.35-15.4-.08-15.03,7.14-25.03,21.67-30.01,3.47-1.12,12.24-2.83,26.31-5.12,12.01-2.12,19.27-5.4,21.78-9.84,1.25-2.54,1.71-5.54,1.38-9.02l-.49-2.61c-1.48-10.11-2.86-16.6-4.14-19.44-3.2-6.63-8.12-10-14.77-10.13-11.86.38-17.93,4.37-18.21,11.96-.13,6.01,3.14,9.4,9.78,10.15,1.27.15,2.53.22,3.8.22,2.26,8.53-.16,15.19-7.25,19.97-6.31,4.3-12.63,5.05-18.97,2.24-4.76-2.03-7.86-5.81-9.32-11.34-2.75-10.11-.18-18.9,7.69-26.38,7.71-7,18.61-10.54,32.69-10.61Zm20.66,48.3c-1.1,2.54-5.03,5.72-11.81,9.55-8.67,5.11-14.34,9.89-17.01,14.33-2.2,4.13-3.28,8.64-3.25,13.54.06,10.92,4.45,18.25,13.17,22,6.98,2.97,13.22,2.62,18.74-1.05,4.41-2.87,6.29-7.07,5.63-12.61l-5.46-45.77Z"/>
      <g>
        <path class="cls-2" d="m488.32,199.54c0,23.28.01,46.56-.01,69.85,0,3.53-1.01,6.76-3.4,9.45-1.78,2-3.98,3.13-6.72,3.06-1.22-.03-2.44-.05-3.66,0-3.79.16-6.44-1.69-8.37-4.75-1.48-2.34-2.14-4.95-2.14-7.69-.01-46.93-.01-93.86.02-140.78,0-1.25.44-2.52.74-3.76,3.36-13.84,6.73-27.68,10.1-41.52.2-.82.61-1.2,1.28-1.2.67,0,1.08.38,1.28,1.2,3.56,14.65,7.13,29.3,10.68,43.95.12.49.18,1.01.18,1.52,0,23.56,0,47.12,0,70.68Zm-14.93-68.58v.96c0,38.1,0,76.21,0,114.31,0,.21-.04.44.02.64.04.14.21.35.32.35,1.64.02,3.28.02,4.94.02v-116.27h-5.28Zm7.91,115.95c1.37-.29,2.6-.57,3.83-.79.54-.09.66-.32.66-.84-.01-38.21-.01-76.43-.01-114.64v-.83c-1.27.25-2.45.54-3.65.71-.66.1-.85.34-.85,1.02.02,38.17.02,76.34.02,114.51v.86Zm-14.74-117.09c0,.47,0,.84,0,1.2,0,38.04,0,76.09,0,114.13,0,.17-.03.35.01.51.04.14.15.33.26.36,1.3.31,2.61.6,4.02.91,0-.4,0-.7,0-.99,0-38.15,0-76.3,0-114.45,0-.13.04-.28,0-.38-.09-.18-.21-.44-.37-.47-1.27-.29-2.54-.53-3.92-.81Zm9.5-1.56c3.03.41,5.94-.37,8.88-.93.43-.08.51-.28.42-.67-1.67-6.83-3.34-13.66-5-20.49-.1-.43-.3-.55-.72-.49-2.3.32-4.6.33-6.9,0-.45-.06-.64.07-.75.53-1.65,6.81-3.31,13.62-4.98,20.43-.1.4-.07.62.42.71,2.85.58,5.68,1.32,8.64.92Zm9.7,137.14c-6.42,1.69-12.78,1.75-19.18.03,0,1.71-.06,3.28.02,4.83.1,1.92.63,3.75,1.62,5.42,1.44,2.42,3.45,3.86,6.4,3.72,1-.05,2.01-.06,3.01,0,3.11.17,5.17-1.37,6.65-3.95,1.77-3.1,1.56-6.49,1.49-10.04Z"/>
        <path class="cls-2" d="m473.39,130.95h5.28v116.27c-1.66,0-3.3,0-4.94-.02-.11,0-.28-.21-.32-.35-.06-.2-.02-.42-.02-.64,0-38.1,0-76.21,0-114.31v-.96Z"/>
        <path class="cls-2" d="m481.29,246.9v-.86c0-38.17,0-76.34-.02-114.51,0-.67.19-.92.85-1.02,1.2-.18,2.38-.46,3.65-.71v.83c0,38.21,0,76.43.01,114.64,0,.53-.13.75-.66.84-1.24.22-2.47.5-3.83.79Z"/>
        <path class="cls-2" d="m466.55,129.81c1.38.28,2.65.52,3.92.81.15.03.28.29.37.47.05.1,0,.25,0,.38,0,38.15,0,76.3,0,114.45,0,.29,0,.58,0,.99-1.41-.32-2.72-.6-4.02-.91-.11-.03-.22-.22-.26-.36-.05-.16-.01-.34-.01-.51,0-38.04,0-76.09,0-114.13,0-.36,0-.72,0-1.2Z"/>
        <path class="cls-4" d="m476.05,128.25c-2.96.4-5.79-.34-8.64-.92-.48-.1-.52-.31-.42-.71,1.67-6.81,3.33-13.62,4.98-20.43.11-.45.3-.59.75-.53,2.3.33,4.6.32,6.9,0,.41-.06.61.06.72.49,1.66,6.83,3.33,13.66,5,20.49.1.39.01.59-.42.67-2.94.57-5.85,1.35-8.88.93Z"/>
        <path class="cls-3" d="m485.75,265.4c.07,3.55.29,6.94-1.49,10.04-1.47,2.58-3.54,4.12-6.65,3.95-1-.06-2.01-.05-3.01,0-2.95.15-4.96-1.3-6.4-3.72-.99-1.67-1.52-3.49-1.62-5.42-.08-1.55-.02-3.11-.02-4.83,6.4,1.72,12.76,1.67,19.18-.03Zm-17.91,4.39c0,4.18,1.75,6.89,5.09,8.22.8.32,1.54.07,1.83-.63.28-.67-.04-1.36-.79-1.72-.12-.05-.23-.1-.35-.16-1.81-.84-2.94-2.21-3.11-4.22-.09-1.03.04-2.08.12-3.12.06-.78-.32-1.41-1.03-1.54-.74-.14-1.39.32-1.52,1.12-.12.8-.18,1.61-.23,2.05Z"/>
        <path class="cls-1" d="m467.84,269.79c.05-.44.1-1.25.23-2.05.12-.8.78-1.25,1.52-1.12.7.13,1.09.76,1.03,1.54-.08,1.04-.2,2.09-.12,3.12.17,2.01,1.31,3.38,3.11,4.22.12.05.24.1.35.16.76.36,1.07,1.05.79,1.72-.29.7-1.02.95-1.83.63-3.33-1.33-5.09-4.05-5.09-8.22Z"/>
      </g>
    </g>
  </g>
</svg>